<?xml version="1.0" encoding="utf-8"?>
<!-- Generator: Adobe Illustrator 25.0.0, SVG Export Plug-In . SVG Version: 6.00 Build 0)  -->
<svg version="1.1" id="Layer_1" xmlns="http://www.w3.org/2000/svg" xmlns:xlink="http://www.w3.org/1999/xlink" x="0px" y="0px"
	 viewBox="0 0 28.67 31.89" style="enable-background:new 0 0 28.67 31.89;" xml:space="preserve">
<style type="text/css">
	.st0{fill:#5F534A;}
</style>
<path id="Path_2_1_" class="st0" d="M19.44,23.16c-3.16,2.06-7.08,2.58-10.67,1.41c-2.99-0.91-5.51-2.93-7.06-5.64
	C-1.47,13.47-0.11,6.5,4.88,2.63C9.9-1.25,17.03-0.79,21.5,3.72c2.36,2.32,3.68,5.51,3.66,8.82c0.04,3.31-1.25,6.49-3.56,8.85
	c0.5,0.57,0.99,1.15,1.49,1.72c1.5,1.73,3,3.47,4.49,5.21c0.53,0.58,0.9,1.3,1.06,2.07c0.04,0.2,0.05,0.4,0.03,0.59
	c0.02,0.48-0.36,0.89-0.84,0.91c-0.12,0-0.24-0.01-0.35-0.06c-0.53-0.13-1-0.42-1.36-0.83c-0.62-0.67-1.21-1.36-1.81-2.05
	c-1.39-1.61-2.78-3.22-4.16-4.83C19.89,23.82,19.68,23.49,19.44,23.16z"/>
</svg>
