<?xml version="1.0" encoding="utf-8"?>
<!-- Generator: Adobe Illustrator 25.0.0, SVG Export Plug-In . SVG Version: 6.00 Build 0)  -->
<svg version="1.1" id="Layer_1" xmlns="http://www.w3.org/2000/svg" xmlns:xlink="http://www.w3.org/1999/xlink" x="0px" y="0px"
	 viewBox="0 0 40 44" style="enable-background:new 0 0 40 44;" xml:space="preserve">
<style type="text/css">
	.st0{fill:#5F534A;}
</style>
<g id="Group_4" transform="translate(0 0)">
	<path id="Path_3" class="st0" d="M21.11,0.08c1.39,0.18,2.29,0.6,3.36,1.24c2.07,1.12,3.86,3.95,3.89,6.72c0.04,0.9,0,1.81,0,2.86
		h4.94c1.74,0,2.12,0.42,2.27,2.18c0.48,5.51,1,11.02,1.5,16.55c0.37,4.16,0.73,8.31,1.08,12.46c0.2,0.84-0.33,1.69-1.17,1.88
		c-0.2,0.05-0.41,0.05-0.61,0.03C25.45,44,14.52,44,3.6,43.98c-1.29,0-1.89-0.67-1.77-2c0.51-5.68,1-11.35,1.52-17.03
		c0.37-4.05,0.73-8.11,1.09-12.16c0.11-1.34,0.62-1.88,1.95-1.88c1.7,0,3.38,0,5.22,0c0-0.77,0-1.47,0-2.18
		c-0.22-4.26,2.77-7.93,7.06-8.63C18.94,0.03,19.54,0,19.96,0C20.56,0,21.11,0.08,21.11,0.08z M25.17,10.87
		c0.08-1.17,0.06-2.33-0.03-3.48c-0.51-2.81-3.19-4.69-6.02-4.19c-0.11,0.03-0.23,0.04-0.33,0.08c-3.27,0.87-4.65,3.69-3.9,7.6
		H25.17z"/>
</g>
</svg>
