<?xml version="1.0" encoding="utf-8"?>
<!-- Generator: Adobe Illustrator 25.0.0, SVG Export Plug-In . SVG Version: 6.00 Build 0)  -->
<svg version="1.1" id="Layer_1" xmlns="http://www.w3.org/2000/svg" xmlns:xlink="http://www.w3.org/1999/xlink" x="0px" y="0px"
	 viewBox="0 0 28.7 35.01" style="enable-background:new 0 0 28.7 35.01;" xml:space="preserve">
<style type="text/css">
	.st0{fill:#60534B;}
</style>
<g id="Group_4" transform="translate(0 0)">
	<path id="Path_3" class="st0" d="M15.17,0.12c0.92,0.28,1.82,0.64,2.68,1.07c1.89,1.11,3.05,3.12,3.07,5.3c0.03,0.71,0,1.43,0,2.26
		h3.9c1.37,0,1.67,0.33,1.79,1.72c0.38,4.35,0.79,8.7,1.18,13.06c0.29,3.28,0.58,6.56,0.85,9.83c0.16,0.66-0.26,1.33-0.92,1.48
		c-0.16,0.04-0.32,0.04-0.48,0.02c-8.62,0.01-17.24,0.01-25.86,0c-1.02,0-1.49-0.53-1.4-1.58c0.39-4.48,0.78-8.96,1.19-13.44
		c0.29-3.2,0.58-6.4,0.86-9.6c0.09-1.07,0.49-1.48,1.54-1.48c1.34,0,2.67,0,4.12,0c0-0.61,0-1.16,0-1.72
		c-0.17-3.36,2.24-6.31,5.57-6.81c0.07-0.03,0.14-0.06,0.2-0.11L15.17,0.12z M18.49,11.3h-8.33c0,0.68,0.01,1.3,0,1.91
		c-0.02,0.95-0.45,1.45-1.22,1.46c-0.79,0.01-1.21-0.48-1.23-1.43c-0.01-0.65,0-1.31,0-1.96H4.43L2.55,32.32h23.54L24.2,11.24h-3.14
		c-0.06,0.13-0.1,0.18-0.1,0.22c-0.01,0.62-0.01,1.23-0.03,1.85c-0.02,0.89-0.46,1.36-1.22,1.36c-0.75-0.01-1.2-0.49-1.22-1.38
		C18.47,12.65,18.49,12.02,18.49,11.3z M18.4,8.73c0.06-0.92,0.05-1.84-0.02-2.75c-0.4-2.22-2.52-3.7-4.75-3.31
		c-0.09,0.02-0.18,0.03-0.26,0.06c-2.58,0.69-3.67,2.91-3.08,6L18.4,8.73z"/>
</g>
</svg>
