<?xml version="1.0" encoding="utf-8"?>
<!-- Generator: Adobe Illustrator 25.0.0, SVG Export Plug-In . SVG Version: 6.00 Build 0)  -->
<svg version="1.1" id="Layer_1" xmlns="http://www.w3.org/2000/svg" xmlns:xlink="http://www.w3.org/1999/xlink" x="0px" y="0px"
	 viewBox="0 0 28.7 35.01" style="enable-background:new 0 0 28.7 35.01;" xml:space="preserve">
<style type="text/css">
	.st0{fill:#60534B;}
</style>
<path class="st0" d="M28.67,33.49c-0.27-3.28-0.56-6.56-0.85-9.83c-0.39-4.36-0.81-8.7-1.18-13.06c-0.12-1.39-0.42-1.72-1.79-1.72
	h-3.9c0-0.75,0.02-1.41,0-2.06c0-0.07,0.01-0.13,0.01-0.2c0-3.66-2.97-6.62-6.62-6.62S7.71,2.97,7.71,6.62c0,0.1,0.01,0.2,0.02,0.3
	c0,0.08-0.01,0.16-0.01,0.24v1.72H3.6c-1.05,0-1.45,0.41-1.54,1.48c-0.28,3.2-0.57,6.4-0.86,9.6c-0.4,4.48-0.8,8.96-1.19,13.44
	c-0.09,1.05,0.38,1.58,1.4,1.58c8.62,0.01,17.24,0.01,25.86,0c0.16,0.03,0.32,0.02,0.48-0.02C28.41,34.82,28.82,34.15,28.67,33.49z
	 M10.31,8.85c-0.04-0.2-0.06-0.39-0.09-0.58v-1.6c0-0.02-0.01-0.03-0.01-0.05s0-0.03,0.01-0.05V6.51c0-0.03,0.01-0.06,0.01-0.08h0
	c0.1-2.18,1.89-3.92,4.09-3.92c2.17,0,3.92,1.68,4.08,3.81c0.01,0.14,0.01,0.27,0.02,0.41l0.01,1.56c-0.01,0.19,0,0.38-0.02,0.57
	L10.31,8.85z"/>
</svg>
