<?xml version="1.0" encoding="utf-8"?>
<!-- Generator: Adobe Illustrator 25.2.1, SVG Export Plug-In . SVG Version: 6.00 Build 0)  -->
<svg version="1.1" id="Layer_1" xmlns="http://www.w3.org/2000/svg" xmlns:xlink="http://www.w3.org/1999/xlink" x="0px" y="0px"
	 viewBox="0 0 40 44" style="enable-background:new 0 0 40 44;" xml:space="preserve">
<style type="text/css">
	.st0{fill:none;}
	.st1{fill:#5F534A;}
</style>
<rect class="st0" width="40" height="44"/>
<path id="Path_9" class="st1" d="M18.7,5h2.5l1.9,0.3c10.2,1.7,17,11.3,15.3,21.5c-1.7,10-10.9,16.8-20.9,15.4
	C10,41,4.8,36.7,2.3,29.5c-0.4-1.4-0.7-2.8-1-4.2v-3.2c0.1-0.1,0.1-0.3,0.1-0.4C2.5,13.9,6.8,8.6,14.3,6C15.7,5.5,17.2,5.2,18.7,5z
	 M19.6,40.1c2.9,0.1,5.7-0.6,8.3-2c1.7-1,1.7-0.5,1.4-2.8c-0.9-5.1-5.8-8.5-10.9-7.5c-4.2,0.8-7.4,4.4-7.6,8.7
	c-0.1,0.5,0.2,0.9,0.6,1.1C13.7,39.1,16.6,40,19.6,40.1L19.6,40.1z M25.6,20c0-3.1-2.5-5.6-5.6-5.6c-3.1,0-5.6,2.5-5.6,5.6
	c0,3.1,2.5,5.6,5.6,5.6C23.1,25.7,25.6,23.2,25.6,20C25.6,20,25.6,20,25.6,20L25.6,20z"/>
</svg>
