<?xml version="1.0" encoding="utf-8"?>
<!-- Generator: Adobe Illustrator 25.2.1, SVG Export Plug-In . SVG Version: 6.00 Build 0)  -->
<svg version="1.1" id="Layer_1" xmlns="http://www.w3.org/2000/svg" xmlns:xlink="http://www.w3.org/1999/xlink" x="0px" y="0px"
	 viewBox="0 0 40 44" style="enable-background:new 0 0 40 44;" xml:space="preserve">
<style type="text/css">
	.st0{fill:none;}
	.st1{fill:#5F534A;}
</style>
<rect class="st0" width="40" height="44"/>
<path id="Path_2_1_" class="st1" d="M26.6,31.3c-4.1,2.6-9.1,3.3-13.7,1.8c-3.8-1.2-7.1-3.8-9.1-7.2c-4.1-7-2.3-16,4.1-20.9
	c6.5-5,15.6-4.4,21.4,1.4c3,3,4.7,7.1,4.7,11.3C34,21.9,32.3,26,29.3,29c0.6,0.7,1.3,1.5,1.9,2.2c1.9,2.2,3.9,4.5,5.8,6.7
	c0.7,0.7,1.2,1.7,1.4,2.7c0.1,0.3,0.1,0.5,0,0.8c0,0.6-0.5,1.1-1.1,1.2c-0.2,0-0.3,0-0.4-0.1c-0.7-0.2-1.3-0.5-1.7-1.1
	c-0.8-0.9-1.6-1.7-2.3-2.6c-1.8-2.1-3.6-4.1-5.3-6.2C27.1,32.1,26.9,31.7,26.6,31.3z"/>
</svg>
