<?xml version="1.0" encoding="utf-8"?>
<!-- Generator: Adobe Illustrator 25.0.0, SVG Export Plug-In . SVG Version: 6.00 Build 0)  -->
<svg version="1.1" id="Layer_1" xmlns="http://www.w3.org/2000/svg" xmlns:xlink="http://www.w3.org/1999/xlink" x="0px" y="0px"
	 viewBox="0 0 40 44" style="enable-background:new 0 0 40 44;" xml:space="preserve">
<style type="text/css">
	.st0{fill:#5F534A;}
</style>
<path id="Path_9" class="st0" d="M18.66,2.03h2.67l1.99,0.32c10.86,1.81,18.21,12.1,16.4,22.97c-1.78,10.65-11.71,17.96-22.4,16.47
	C9.27,40.57,3.79,35.96,1.05,28.25c-0.45-1.48-0.79-3-1.05-4.54v-3.37c0.06-0.13,0.1-0.27,0.14-0.41
	C1.28,11.52,5.88,5.88,13.86,3.06C15.44,2.61,17.04,2.27,18.66,2.03z M19.56,39.52c3.08,0.06,6.13-0.69,8.83-2.17
	c1.83-1.06,1.85-0.59,1.46-3.02c-1.01-5.44-6.25-9.05-11.71-8.03c-4.52,0.84-7.9,4.66-8.18,9.25c-0.06,0.5,0.19,1,0.64,1.23
	C13.3,38.49,16.39,39.43,19.56,39.52L19.56,39.52z M26,18.1c0.01-3.32-2.67-6.02-5.99-6.02c-3.32-0.01-6.02,2.67-6.02,5.99
	c-0.01,3.31,2.66,5.99,5.96,6.02C23.28,24.12,25.99,21.44,26,18.1C26,18.12,26,18.1,26,18.1L26,18.1z"/>
</svg>
