<?xml version="1.0" encoding="utf-8"?>
<!-- Generator: Adobe Illustrator 25.0.0, SVG Export Plug-In . SVG Version: 6.00 Build 0)  -->
<svg version="1.1" id="Layer_1" xmlns="http://www.w3.org/2000/svg" xmlns:xlink="http://www.w3.org/1999/xlink" x="0px" y="0px"
	 viewBox="0 0 40 44" style="enable-background:new 0 0 40 44;" xml:space="preserve">
<style type="text/css">
	.st0{fill:#5F534A;}
</style>
<path id="Path_2_1_" class="st0" d="M27.04,31.96c-4.36,2.84-9.77,3.56-14.72,1.95c-4.13-1.26-7.6-4.04-9.74-7.78
	C-1.81,18.58,0.07,8.97,6.95,3.63c6.93-5.35,16.77-4.72,22.93,1.5c3.26,3.2,5.08,7.6,5.05,12.17c0.06,4.57-1.72,8.96-4.91,12.21
	c0.69,0.79,1.37,1.59,2.06,2.37c2.07,2.39,4.14,4.79,6.2,7.19c0.73,0.8,1.24,1.79,1.46,2.86c0.06,0.28,0.07,0.55,0.04,0.81
	c0.03,0.66-0.5,1.23-1.16,1.26c-0.17,0-0.33-0.01-0.48-0.08c-0.73-0.18-1.38-0.58-1.88-1.15c-0.86-0.92-1.67-1.88-2.5-2.83
	c-1.92-2.22-3.84-4.44-5.74-6.66C27.66,32.87,27.37,32.41,27.04,31.96z"/>
</svg>
