<svg xmlns="http://www.w3.org/2000/svg" width="65.175" height="72.432" viewBox="0 0 65.175 72.432">
  <path id="Path_2" data-name="Path 2" d="M-316.128,31.726a28.323,28.323,0,0,1-24.24,3.207,27.768,27.768,0,0,1-16.037-12.826,28.6,28.6,0,0,1,7.2-37.032,28.561,28.561,0,0,1,37.774,2.457,27.824,27.824,0,0,1,8.308,20.052,28.249,28.249,0,0,1-8.1,20.1q1.695,1.958,3.38,3.9,5.107,5.918,10.21,11.84a10,10,0,0,1,2.409,4.7,5.353,5.353,0,0,1,.074,1.35,1.993,1.993,0,0,1-2.693,1.95,6.2,6.2,0,0,1-3.094-1.88c-1.4-1.519-2.75-3.092-4.1-4.656q-4.744-5.484-9.465-10.987C-315.092,33.223-315.585,32.462-316.128,31.726Zm-16.291-.393a25.539,25.539,0,0,0,11.749-2.615,23.473,23.473,0,0,0,12-28.078,24.064,24.064,0,0,0-21.576-16.531,24.052,24.052,0,0,0-17.2,5.687A23.237,23.237,0,0,0-354.5,15.474,23.913,23.913,0,0,0-332.419,31.332Z" transform="translate(360.314 20.911)" fill="#5f534a"/>
</svg>
