<svg id="_8BkTS1" data-name="8BkTS1" xmlns="http://www.w3.org/2000/svg" width="40" height="44" viewBox="0 0 40 44">
  <g id="Group_3" data-name="Group 3" transform="translate(5.324 5.656)">
    <path id="Path_2" data-name="Path 2" d="M-340.872,2.249A12.462,12.462,0,0,1-351.538,3.66a12.218,12.218,0,0,1-7.056-5.644,12.583,12.583,0,0,1,3.167-16.294,12.567,12.567,0,0,1,16.62,1.081,12.242,12.242,0,0,1,3.656,8.823A12.429,12.429,0,0,1-338.715.472q.746.861,1.487,1.718,2.247,2.6,4.492,5.21a4.4,4.4,0,0,1,1.06,2.067,2.355,2.355,0,0,1,.033.594.877.877,0,0,1-1.185.858,2.729,2.729,0,0,1-1.361-.827c-.618-.668-1.21-1.36-1.806-2.049q-2.087-2.413-4.164-4.834C-340.416,2.908-340.633,2.573-340.872,2.249Zm-7.168-.173A11.237,11.237,0,0,0-342.871.925a10.328,10.328,0,0,0,5.281-12.354,10.588,10.588,0,0,0-9.494-7.274,10.583,10.583,0,0,0-7.567,2.5,10.224,10.224,0,0,0-3.1,11.3A10.522,10.522,0,0,0-348.04,2.076Z" transform="translate(360.314 20.911)" fill="#5f534a"/>
  </g>
  <rect id="Rectangle_22" data-name="Rectangle 22" width="40" height="44" fill="none"/>
</svg>
