<svg xmlns="http://www.w3.org/2000/svg" width="40" height="44" viewBox="0 0 40 44"><g transform="translate(4 6.01)"><path d="M170.979,265.206h2.086l1.558.252a15.612,15.612,0,0,1-4.707,30.864c-6.3-.949-10.59-4.556-12.728-10.592a30.449,30.449,0,0,1-.814-3.555v-2.643a1.7,1.7,0,0,0,.108-.317c.895-6.581,4.489-10.991,10.733-13.2A29.263,29.263,0,0,1,170.979,265.206Zm4.4,17.91a9.656,9.656,0,0,1,6.017,7.656,13.638,13.638,0,0,0,3.295-15.152,13.712,13.712,0,0,0-26.028,2.181c-1.216,5.24,1.035,10.559,4.014,12.905a9.6,9.6,0,0,1,5.995-7.593,6.412,6.412,0,0,1-1.187-9.727,6.324,6.324,0,0,1,9.018-.073A6.408,6.408,0,0,1,175.376,283.116Zm-3.693,11.427a13.718,13.718,0,0,0,6.912-1.7c1.425-.834,1.449-.459,1.136-2.357a7.853,7.853,0,0,0-15.559.96.931.931,0,0,0,.5.956A13.756,13.756,0,0,0,171.683,294.543Zm5.036-16.754a4.7,4.7,0,1,0-4.736,4.686A4.71,4.71,0,0,0,176.719,277.788Z" transform="translate(-156.374 -265.206)" fill="#5f534a"/></g><rect width="40" height="44" fill="none"/></svg>