<?xml version="1.0" encoding="utf-8"?>
<!-- Generator: Adobe Illustrator 25.0.0, SVG Export Plug-In . SVG Version: 6.00 Build 0)  -->
<svg version="1.1" id="Layer_1" xmlns="http://www.w3.org/2000/svg" xmlns:xlink="http://www.w3.org/1999/xlink" x="0px" y="0px"
	 viewBox="0 0 31.29 31.26" style="enable-background:new 0 0 31.29 31.26;" xml:space="preserve">
<style type="text/css">
	.st0{fill:#5F534A;}
</style>
<path id="Path_9" class="st0" d="M14.6,0h2.09l1.56,0.25c8.5,1.42,14.25,9.47,12.83,17.97c-1.39,8.33-9.16,14.05-17.53,12.89
	c-6.3-0.95-10.59-4.56-12.73-10.59C0.47,19.36,0.2,18.17,0,16.97v-2.64c0.05-0.1,0.08-0.21,0.11-0.32C1,7.43,4.6,3.02,10.84,0.81
	C12.08,0.46,13.33,0.19,14.6,0z M15.3,29.34c2.41,0.05,4.8-0.54,6.91-1.7c1.43-0.83,1.45-0.46,1.14-2.36
	c-0.79-4.26-4.89-7.08-9.16-6.28c-3.54,0.66-6.18,3.65-6.4,7.24c-0.05,0.39,0.15,0.78,0.5,0.96C10.4,28.53,12.82,29.27,15.3,29.34
	L15.3,29.34z M20.34,12.58c0.01-2.6-2.09-4.71-4.69-4.71c-2.6-0.01-4.71,2.09-4.71,4.69c-0.01,2.59,2.08,4.69,4.66,4.71
	C18.21,17.29,20.33,15.19,20.34,12.58C20.34,12.59,20.34,12.58,20.34,12.58L20.34,12.58z"/>
</svg>
